<?xml version="1.0" encoding="UTF-8"?>
<!-- Generator: visioncortex VTracer 0.6.12 -->
<svg version="1.1" xmlns="http://www.w3.org/2000/svg" width="200" height="200">
<path d="M0 0 C66 0 132 0 200 0 C200 66 200 132 200 200 C134 200 68 200 0 200 C0 134 0 68 0 0 Z " fill="#FCFDFC" transform="translate(0,0)"/>
<path d="M0 0 C8.466 5.623 15.409 12.707 17.953 22.816 C19.817 34.844 18.334 45.391 11.117 55.301 C3.881 63.868 -4.468 68.357 -15.648 69.906 C-25.977 70.406 -34.287 66.84 -42.07 60.176 C-49.782 52.699 -54.596 44.123 -55.07 33.238 C-54.714 22.631 -51.281 12.955 -43.633 5.488 C-30.92 -5.05 -14.806 -8.502 0 0 Z " fill="#F3F8F7" transform="translate(116.6328125,41.51171875)"/>
<path d="M0 0 C8.466 5.623 15.409 12.707 17.953 22.816 C19.817 34.844 18.334 45.391 11.117 55.301 C3.881 63.868 -4.468 68.357 -15.648 69.906 C-25.977 70.406 -34.287 66.84 -42.07 60.176 C-49.782 52.699 -54.596 44.123 -55.07 33.238 C-54.714 22.631 -51.281 12.955 -43.633 5.488 C-30.92 -5.05 -14.806 -8.502 0 0 Z M-41.938 13.344 C-48.239 21.315 -48.684 29.528 -47.633 39.488 C-45.549 47.96 -39.625 54.78 -32.383 59.426 C-25.69 63.375 -18.2 63.479 -10.633 62.488 C-1.536 59.825 4.498 54.518 9.367 46.488 C12.978 39.413 13.661 31.494 11.676 23.812 C7.997 13.669 1.841 8.348 -7.633 3.488 C-20.685 -0.862 -32.937 3.524 -41.938 13.344 Z " fill="#183049" transform="translate(116.6328125,41.51171875)"/>
<path d="M0 0 C3.438 1.5 3.438 1.5 6 3 C6.33 2.34 6.66 1.68 7 1 C7.33 2.65 7.66 4.3 8 6 C8.99 6.33 9.98 6.66 11 7 C11 5.02 11 3.04 11 1 C14.667 1 18.333 1 22 1 C22 2.32 22 3.64 22 5 C21.192 5.429 20.384 5.859 19.551 6.301 C17 8 17 8 16.293 11.355 C16.258 12.62 16.223 13.885 16.188 15.188 C16.164 15.824 16.164 15.824 16.043 19.043 C16.036 19.531 16.036 19.531 16 22 C14.35 22 12.7 22 11 22 C10.67 21.01 10.34 20.02 10 19 C9.711 19.33 9.711 19.33 8.25 21 C3.337 24.023 -1.376 23.904 -7 23 C-10.225 21.357 -12.359 19.282 -14 16 C-14.548 11.428 -14.642 8.041 -12.188 4.062 C-8.034 0.147 -5.65 -0.479 0 0 Z " fill="#566576" transform="translate(51,128)"/>
<path d="M0 0 C1.32 0.33 2.64 0.66 4 1 C4.33 6.28 4.66 11.56 5 17 C6.32 17.33 7.64 17.66 9 18 C9 14.04 9 10.08 9 6 C11.459 5.919 13.915 5.86 16.375 5.812 C17.074 5.787 17.772 5.762 18.492 5.736 C20.523 5.707 20.523 5.707 24 6 C24.66 6.99 25.32 7.98 26 9 C25 10 25 10 22.059 10.098 C21.461 10.092 21.461 10.092 18.438 10.062 C17.839 10.058 17.839 10.058 14.809 10.035 C13.882 10.024 12.955 10.012 12 10 C12 13.63 12 17.26 12 21 C9.36 21 6.72 21 4 21 C4 28.59 4 36.18 4 44 C-1.851 41.074 -4.808 37.225 -7.875 31.5 C-10.203 24.434 -10.468 15.336 -7.477 8.539 C-6.989 7.701 -6.502 6.863 -6 6 C-5.34 6 -4.68 6 -4 6 C-3.856 5.691 -3.856 5.691 -3.125 4.125 C-2 2 -2 2 0 0 Z " fill="#F8FBFA" transform="translate(78,54)"/>
<path d="M0 0 C2.249 -0.081 4.5 -0.139 6.75 -0.188 C8.003 -0.222 9.256 -0.257 10.547 -0.293 C14.176 0.015 15.587 0.307 18 3 C18.82 6.07 18.633 8.899 18 12 C16 14.562 16 14.562 13 16 C10.36 16 7.72 16 5 16 C5 21.28 5 26.56 5 32 C3.68 32 2.36 32 1 32 C1 26.72 1 21.44 1 16 C-0.32 16 -1.64 16 -3 16 C-3 23.26 -3 30.52 -3 38 C-4.98 37.01 -6.96 36.02 -9 35 C-8.67 27.08 -8.34 19.16 -8 11 C-5.36 11 -2.72 11 0 11 C0 7.37 0 3.74 0 0 Z " fill="#AAC9C3" transform="translate(90,64)"/>
<path d="M0 0 C2.583 2.19 4.484 3.968 6 7 C6.578 14.051 6.578 14.051 4.25 17.875 C1.106 20.844 -0.683 21.863 -5 22.312 C-8 22 -8 22 -12 19 C-12 22.3 -12 25.6 -12 29 C-13.32 29 -14.64 29 -16 29 C-16 19.43 -16 9.86 -16 0 C-14.68 0 -13.36 0 -12 0 C-12 0.66 -12 1.32 -12 2 C-11.319 1.484 -10.639 0.969 -9.938 0.438 C-6.059 -1.461 -4.123 -1.178 0 0 Z " fill="#152C45" transform="translate(138,129)"/>
<path d="M0 0 C0.99 0.66 1.98 1.32 3 2 C3.33 1.67 3.66 1.34 4 1 C5.65 1 7.3 1 9 1 C9 7.93 9 14.86 9 22 C6.667 22 4.333 22 2 22 C1.34 22.33 0.68 22.66 0 23 C-2.964 23.404 -5.089 23.564 -7.691 21.953 C-12.746 17.812 -12.746 17.812 -13.273 14.047 C-13.463 9.753 -13.434 6.904 -10.625 3.5 C-6.913 -0.036 -5.072 -0.311 0 0 Z " fill="#20374C" transform="translate(174,128)"/>
<path d="M0 0 C2.372 -0.103 4.744 -0.206 7.188 -0.312 C7.925 -0.358 8.663 -0.404 9.423 -0.45 C13.247 -0.53 14.884 -0.087 17.953 2.234 C20.589 5.796 20.668 7.638 20.434 11.91 C19.808 14.927 18.478 16.251 16 18 C12.571 19.715 8.783 19.054 5 19 C5 22.3 5 25.6 5 29 C3.35 29 1.7 29 0 29 C0 19.43 0 9.86 0 0 Z " fill="#7D8D9B" transform="translate(15,121)"/>
<path d="M0 0 C2.564 1.8 3.351 3.181 5 6 C5 7.98 5 9.96 5 12 C-0.28 12 -5.56 12 -11 12 C-10.34 13.32 -9.68 14.64 -9 16 C-8.371 16.01 -8.371 16.01 -5.188 16.062 C-4.48 16.074 -3.772 16.086 -3.043 16.098 C-1 16 -1 16 2 15 C2.66 15.33 3.32 15.66 4 16 C3.069 18.328 2.346 19.744 0.312 21.25 C-3.039 22.337 -5.491 22.424 -9 22 C-11.972 20.215 -14.426 18.148 -16 15 C-16.531 11.206 -16.851 7.537 -14.953 4.109 C-10.422 -1.381 -6.658 -1.86 0 0 Z " fill="#3B4E62" transform="translate(113,129)"/>
<path d="M0 0 C3.668 -0.163 7.33 -0.281 11 -0.375 C12.03 -0.425 13.06 -0.476 14.121 -0.527 C20.605 -0.651 24.443 0.133 29.477 4.31 C33.342 8.598 33.438 12.669 33.305 18.242 C32.822 22.609 31.806 24.562 29 28 C24.944 30.845 21.043 32.63 16 32 C16 30.35 16 28.7 16 27 C17.052 26.959 18.104 26.918 19.188 26.875 C23.051 25.988 24.774 25.104 27.113 21.879 C28.809 18.287 28.905 14.837 28 11 C25.818 8.244 24.128 6.564 21 5 C18.121 4.767 15.259 4.58 12.375 4.438 C11.974 4.416 11.974 4.416 9.945 4.307 C7.964 4.2 5.982 4.1 4 4 C4 7.96 4 11.92 4 16 C2.68 16 1.36 16 0 16 C0 10.72 0 5.44 0 0 Z " fill="#93B9B0" transform="translate(83,56)"/>
<path d="M0 0 C2 2 2 2 2 5 C2.99 5.33 3.98 5.66 5 6 C5 4.02 5 2.04 5 0 C8.667 0 12.333 0 16 0 C16 1.32 16 2.64 16 4 C15.192 4.429 14.384 4.859 13.551 5.301 C11 7 11 7 10.293 10.355 C10.258 11.62 10.223 12.885 10.188 14.188 C10.164 14.824 10.164 14.824 10.043 18.043 C10.036 18.531 10.036 18.531 10 21 C8.35 21 6.7 21 5 21 C4.67 20.01 4.34 19.02 4 18 C3.639 18.33 3.639 18.33 1.812 20 C-1.216 22.154 -2.397 22.412 -6 22 C-5.196 21.381 -4.391 20.762 -3.562 20.125 C-1 18 -1 18 0 16 C-0.33 16.083 -0.33 16.083 -2 16.5 C-5.788 17.131 -9.156 17.189 -13 17 C-13.66 16.34 -14.32 15.68 -15 15 C-15 14.01 -15 13.02 -15 12 C-9.72 12 -4.44 12 1 12 C0.691 10.721 0.381 9.442 0.062 8.125 C-0.112 7.406 -0.286 6.686 -0.465 5.945 C-1 4 -1 4 -2 2 C-1.34 2 -0.68 2 0 2 C0 1.34 0 0.68 0 0 Z " fill="#E4EBEE" transform="translate(57,129)"/>
<path d="M0 0 C2.5 2.562 2.5 2.562 4 5 C3.34 5.33 3.34 5.33 0 7 C-0.66 6.34 -1.32 5.68 -2 5 C-5.098 4.67 -7.173 4.547 -9.938 6.062 C-11.648 9.181 -10.805 11.656 -10 15 C-7.291 16.354 -4.991 16.065 -2 16 C-1.67 15.34 -1.34 14.68 -1 14 C0.65 14.66 2.3 15.32 4 16 C2.372 18.761 1.03 20.635 -2.059 21.73 C-5.357 22.292 -7.862 22.602 -10.883 21.004 C-13.722 18.693 -15.795 16.709 -16.238 13.012 C-16.368 8.949 -16.374 6.628 -14.25 3.062 C-9.708 -1.101 -5.945 -1.949 0 0 Z " fill="#1C3248" transform="translate(91,129)"/>
<path d="M0 0 C0.99 0.66 1.98 1.32 3 2 C6.188 1.625 6.188 1.625 9 1 C8.988 1.687 8.977 2.374 8.965 3.082 C8.956 3.983 8.947 4.884 8.938 5.812 C8.926 6.706 8.914 7.599 8.902 8.52 C9 11 9 11 10 14 C6.917 12.801 3.937 11.523 1 10 C0.67 10.99 0.34 11.98 0 13 C-3.519 13.32 -5.42 13.372 -8.438 11.438 C-10 9 -10 9 -9.938 5.375 C-8.372 -0.262 -5.32 -0.443 0 0 Z " fill="#EEF3F5" transform="translate(89,133)"/>
<path d="M0 0 C4.701 2.033 9.295 4.146 13.812 6.562 C18.599 9.016 23.379 10.234 28.629 11.324 C29.411 11.547 30.194 11.77 31 12 C31.165 12.33 31.165 12.33 32 14 C26.702 17.024 21.281 16.791 15.441 15.383 C8.717 13.012 4.008 8.983 -1 4 C-0.67 2.68 -0.34 1.36 0 0 Z M1 2 C2 4 2 4 2 4 Z " fill="#112944" transform="translate(72,94)"/>
<path d="M0 0 C0 1.98 0 3.96 0 6 C1.65 6 3.3 6 5 6 C5 7.32 5 8.64 5 10 C3.35 10 1.7 10 0 10 C0 14.29 0 18.58 0 23 C1.65 23 3.3 23 5 23 C5 24.32 5 25.64 5 27 C3.721 27.062 2.442 27.124 1.125 27.188 C0.765 27.205 0.765 27.205 -1.055 27.293 C-1.697 27.196 -2.339 27.1 -3 27 C-5.491 23.263 -5.207 21.255 -5.125 16.812 C-5.107 15.54 -5.089 14.268 -5.07 12.957 C-5.047 11.981 -5.024 11.005 -5 10 C-6.32 10 -7.64 10 -9 10 C-9 8.68 -9 7.36 -9 6 C-7.68 6 -6.36 6 -5 6 C-5 4.35 -5 2.7 -5 1 C-3 0 -3 0 0 0 Z " fill="#1E3349" transform="translate(154,123)"/>
<path d="M0 0 C2.372 -0.103 4.744 -0.206 7.188 -0.312 C7.925 -0.358 8.663 -0.404 9.423 -0.45 C13.284 -0.531 14.885 -0.088 17.969 2.281 C20.537 5.719 20.411 7.807 20 12 C18.68 12 17.36 12 16 12 C15.34 10.02 14.68 8.04 14 6 C10.7 5.34 7.4 4.68 4 4 C4 6.97 4 9.94 4 13 C3.67 13.165 3.67 13.165 2 14 C2.33 12.02 2.66 10.04 3 8 C2.34 8 1.68 8 1 8 C1 12.29 1 16.58 1 21 C1.99 21 2.98 21 4 21 C4 23.64 4 26.28 4 29 C2.68 29 1.36 29 0 29 C0 19.43 0 9.86 0 0 Z " fill="#11273E" transform="translate(15,121)"/>
<path d="M0 0 C0.33 0 0.66 0 1 0 C1 9.57 1 19.14 1 29 C2.32 29 3.64 29 5 29 C5 25.7 5 22.4 5 19 C5.66 19.33 6.32 19.66 7 20 C6.67 23.3 6.34 26.6 6 30 C4.02 30 2.04 30 0 30 C-0.33 25.05 -0.66 20.1 -1 15 C-1.66 15 -2.32 15 -3 15 C-3.33 16.65 -3.66 18.3 -4 20 C-4.66 19.67 -5.32 19.34 -6 19 C-5.34 18.01 -4.68 17.02 -4 16 C-4.33 16.083 -4.33 16.083 -6 16.5 C-9.788 17.131 -13.156 17.189 -17 17 C-17.66 16.34 -18.32 15.68 -19 15 C-19 14.01 -19 13.02 -19 12 C-13.72 12 -8.44 12 -3 12 C-3 10.02 -3 8.04 -3 6 C-2.01 6 -1.02 6 0 6 C0 4.02 0 2.04 0 0 Z " fill="#D2DADF" transform="translate(121,129)"/>
<path d="M0 0 C2.083 -0.081 4.166 -0.139 6.25 -0.188 C6.83 -0.205 6.83 -0.205 9.766 -0.293 C13.271 0.025 14.647 0.407 17 3 C17.496 5.156 17.496 5.156 17.438 7.5 C17.436 8.273 17.435 9.047 17.434 9.844 C16.893 12.53 16.264 13.462 14 15 C11.738 15.074 11.738 15.074 9.312 14.688 C8.504 14.568 7.696 14.448 6.863 14.324 C6.248 14.217 5.634 14.11 5 14 C5 13.34 5 12.68 5 12 C7.31 11.34 9.62 10.68 12 10 C11.67 8.35 11.34 6.7 11 5 C8.36 4.67 5.72 4.34 3 4 C2.67 5.65 2.34 7.3 2 9 C1.34 8.67 0.68 8.34 0 8 C0 5.36 0 2.72 0 0 Z " fill="#8FB8AF" transform="translate(91,64)"/>
<path d="M0 0 C1.875 1.125 1.875 1.125 3 3 C3.42 6.292 3.295 8.34 1.938 11.375 C0 13 0 13 -3.562 13.375 C-7 13 -7 13 -9 11 C-9.301 8.906 -9.301 8.906 -9.312 6.5 C-9.329 5.706 -9.346 4.912 -9.363 4.094 C-9.303 3.748 -9.303 3.748 -9 2 C-5.531 -0.313 -4.078 -0.425 0 0 Z " fill="#EFF4F5" transform="translate(175,133)"/>
<path d="M0 0 C1.875 1.062 1.875 1.062 3 3 C3.633 8.91 3.633 8.91 1.875 11.938 C-0.89 13.504 -2.882 13.39 -6 13 C-7.875 11.938 -7.875 11.938 -9 10 C-9.633 4.09 -9.633 4.09 -7.875 1.062 C-5.11 -0.504 -3.118 -0.39 0 0 Z " fill="#F2F7F7" transform="translate(136,133)"/>
<path d="M0 0 C4.14 -0.325 6.34 -0.43 9.875 1.875 C12 4 12 4 13 6 C13 7.98 13 9.96 13 12 C7.39 12 1.78 12 -4 12 C-4.33 12.99 -4.66 13.98 -5 15 C-6.087 11.738 -6.291 9.416 -6 6 C-5.01 5.34 -4.02 4.68 -3 4 C-3 5.65 -3 7.3 -3 9 C0.96 9 4.92 9 9 9 C5.839 4.786 4.827 4.287 0 3 C0 2.01 0 1.02 0 0 Z " fill="#142C43" transform="translate(45,129)"/>
<path d="M0 0 C3.667 0 7.333 0 11 0 C11 1.32 11 2.64 11 4 C10.192 4.429 9.384 4.859 8.551 5.301 C6 7 6 7 5.293 10.355 C5.276 10.988 5.276 10.988 5.188 14.188 C5.164 14.824 5.164 14.824 5.043 18.043 C5.029 19.019 5.015 19.995 5 21 C3.35 21 1.7 21 0 21 C0 14.07 0 7.14 0 0 Z " fill="#1F344A" transform="translate(62,129)"/>
<path d="M0 0 C2.512 1.322 4.554 2.427 6.312 4.688 C7.344 8.156 7.579 11.447 7 15 C4.904 18.443 2.873 20.747 -1 22 C-4.25 22.125 -4.25 22.125 -7 22 C-6.34 21.01 -5.68 20.02 -5 19 C-5.99 18.67 -6.98 18.34 -8 18 C-7.67 17.34 -7.34 16.68 -7 16 C-6.526 16.021 -6.526 16.021 -4.125 16.125 C-1 16 -1 16 1 14 C1.25 10.5 1.25 10.5 1 7 C-0.952 5.048 -2.532 4.152 -5 3 C-3.35 3 -1.7 3 0 3 C0 2.01 0 1.02 0 0 Z " fill="#23384F" transform="translate(137,129)"/>
<path d="M0 0 C0.99 0.33 1.98 0.66 3 1 C2.34 1.639 1.68 2.279 1 2.938 C-1.661 7.012 -1.542 10.257 -1 15 C-0.67 15.99 -0.34 16.98 0 18 C-0.99 18 -1.98 18 -3 18 C-3 19.65 -3 21.3 -3 23 C-5.31 22.67 -7.62 22.34 -10 22 C-10 21.67 -10 21.34 -10 21 C-8.02 21 -6.04 21 -4 21 C-4 19.68 -4 18.36 -4 17 C-5.65 17 -7.3 17 -9 17 C-9 12.71 -9 8.42 -9 4 C-7.02 4 -5.04 4 -3 4 C-3 3.34 -3 2.68 -3 2 C-2.01 1.34 -1.02 0.68 0 0 Z " fill="#EDF3F4" transform="translate(163,129)"/>
<path d="M0 0 C-0.559 4.333 -2.219 7.907 -4.062 11.816 C-5 14 -5 14 -5.504 16.207 C-6 18 -6 18 -7.938 19.125 C-8.618 19.414 -9.299 19.703 -10 20 C-10.66 20.66 -11.32 21.32 -12 22 C-12.522 13.91 -10.593 8.186 -7 1 C-4 0 -4 0 0 0 Z " fill="#122943" transform="translate(75,52)"/>
</svg>
